<svg width="112" height="40" viewBox="0 0 112 40" fill="none" xmlns="http://www.w3.org/2000/svg">
<path d="M57.0849 17.8125H55.4854L53.7941 12.9315C53.7941 12.9315 53.7941 12.616 53.7941 11.9849H55.3018V8.65478H53.368V17.8125H51.834V7.30529H55.905C56.5212 7.30529 56.8293 7.62756 56.8293 8.27209V12.0923C56.8293 12.5354 56.6829 12.8219 56.3901 12.9517C56.2327 13.0188 55.9006 13.0524 55.3936 13.0524L57.0849 17.8125Z" fill="white"/>
<path d="M50.8965 17.8125H49.2969L47.6056 12.9315C47.6056 12.9315 47.6056 12.616 47.6056 11.9849H49.1134V8.65478H47.1795V17.8125H45.6455V7.30529H49.7165C50.3327 7.30529 50.6408 7.62756 50.6408 8.27209V12.0923C50.6408 12.5354 50.4944 12.8219 50.2016 12.9517C50.0443 13.0188 49.7121 13.0524 49.2051 13.0524L50.8965 17.8125Z" fill="white"/>
<path d="M112 17.8125H110.309L108.362 13.1262L108.362 17.8125H106.828L106.828 7.30529H108.362L108.362 11.7499L110.066 7.30529H111.744L111.744 7.37915L109.66 12.3675L112 17.8125Z" fill="white"/>
<path d="M105.621 16.8524C105.621 17.4925 105.309 17.8125 104.684 17.8125H101.485C100.877 17.8125 100.574 17.4925 100.574 16.8524L100.574 8.27209C100.574 7.62756 100.877 7.30529 101.485 7.30529H104.684C105.309 7.30529 105.621 7.62756 105.621 8.27209L105.621 10.7294H104.094L104.094 8.65478H102.108L102.108 16.463H104.094L104.094 14.2541H105.621L105.621 16.8524Z" fill="white"/>
<path d="M99.7148 17.8125H98.1939L97.8858 15.8185H95.965L95.6569 17.8125H94.1426L94.1426 17.7856L96.1289 7.29187H97.7416L99.7148 17.8125ZM97.6694 14.469L96.9221 9.729L96.1682 14.469H97.6694Z" fill="white"/>
<path d="M93.7294 8.69506H92.0381L92.0381 17.8125H90.5107L90.5107 8.69506H88.8193L88.8193 7.30529H93.7294L93.7294 8.69506Z" fill="white"/>
<path d="M88.0527 16.8524C88.0527 17.4925 87.7424 17.8125 87.1218 17.8125H84.0342C83.418 17.8125 83.1099 17.4925 83.1099 16.8524L83.1099 14.3481H84.6439L84.6439 16.4899H86.5187L86.5187 14.4287L83.4442 11.4477C83.2213 11.2284 83.1099 10.9487 83.1099 10.6085L83.1099 8.27209C83.1099 7.62756 83.418 7.30529 84.0342 7.30529H87.1218C87.7424 7.30529 88.0527 7.62308 88.0527 8.25866L88.0527 10.6085H86.5187L86.5187 8.62792H84.6439L84.6439 10.5279L87.7184 13.4955C87.9413 13.7103 88.0527 13.9945 88.0527 14.3481L88.0527 16.8524Z" fill="white"/>
<path d="M82.2245 17.8125H78.1929L78.1929 7.30529H79.7269L79.7269 16.4093H82.2245L82.2245 17.8125Z" fill="white"/>
<path d="M77.2816 17.8125H73.25L73.25 7.30529H74.784L74.784 16.4093H77.2816L77.2816 17.8125Z" fill="white"/>
<path d="M72.0114 16.8524C72.0114 17.4925 71.6967 17.8125 71.0674 17.8125H67.8093C67.1887 17.8125 66.8784 17.4925 66.8784 16.8524L66.8784 7.30529H68.4124L68.4124 16.463H70.4774L70.4774 7.30529H72.0114L72.0114 16.8524Z" fill="white"/>
<path d="M66.0064 8.69506H63.3514L63.3514 11.8036H65.6196L65.6196 13.1665H63.3514L63.3514 17.8125H61.8174L61.8174 7.30529H66.0064L66.0064 8.69506Z" fill="white"/>
<path d="M102.364 31.8524C102.364 32.4925 102.053 32.8125 101.433 32.8125H98.3452C97.729 32.8125 97.4209 32.4925 97.4209 31.8524L97.4209 29.3481H98.9549L98.9549 31.4898H100.83L100.83 29.4287L97.7552 26.4477C97.5323 26.2284 97.4209 25.9487 97.4209 25.6085L97.4209 23.2721C97.4209 22.6275 97.729 22.3053 98.3452 22.3053H101.433C102.053 22.3053 102.364 22.6231 102.364 23.2587L102.364 25.6085H100.83L100.83 23.6279H98.9549L98.9549 25.5279L102.029 28.4955C102.252 28.7103 102.364 28.9945 102.364 29.3481L102.364 31.8524Z" fill="white"/>
<path d="M96.5097 32.8125H94.9102L93.2189 27.9315C93.2189 27.9315 93.2189 27.6159 93.2189 26.9848H94.7266L94.7266 23.6548H92.7928L92.7928 32.8125H91.2588L91.2588 22.3053H95.3298C95.946 22.3053 96.2541 22.6275 96.2541 23.2721L96.2541 27.0923C96.2541 27.5354 96.1077 27.8218 95.8149 27.9516C95.6575 28.0188 95.3254 28.0524 94.8184 28.0524L96.5097 32.8125Z" fill="white"/>
<path d="M90.2033 32.8125H85.9487L85.9487 22.3053H90.1639L90.1639 23.6951H87.4827L87.4827 26.7633H89.7903L89.7903 28.1262H87.4827L87.4827 31.4227H90.2033L90.2033 32.8125Z" fill="white"/>
<path d="M84.8607 28.0255C84.8607 28.679 84.5483 29.0057 83.9233 29.0057H81.4388L81.4388 32.8125H79.9048L79.9048 22.3053H83.9233C84.5483 22.3053 84.8607 22.6275 84.8607 23.2721L84.8607 28.0255ZM83.3136 27.6562L83.3136 23.6548H81.4388L81.4388 27.6562H83.3136Z" fill="white"/>
<path d="M78.6655 31.8524C78.6655 32.4925 78.3552 32.8125 77.7346 32.8125H74.4044C73.7969 32.8125 73.4932 32.4925 73.4932 31.8524L73.4932 23.2721C73.4932 22.6275 73.7969 22.3053 74.4044 22.3053H77.7346C78.3552 22.3053 78.6655 22.6275 78.6655 23.2721L78.6655 31.8524ZM77.1315 31.463L77.1315 23.6548H75.0272L75.0272 31.463H77.1315Z" fill="white"/>
<path d="M72.5819 32.8125H68.5503L68.5503 22.3053H70.0843L70.0843 31.4093H72.5819L72.5819 32.8125Z" fill="white"/>
<path d="M67.4952 32.8125H63.2407L63.2407 22.3053H67.4559L67.4559 23.6951H64.7747L64.7747 26.7633H67.0822L67.0822 28.1262H64.7747L64.7747 31.4227H67.4952L67.4952 32.8125Z" fill="white"/>
<path d="M62.3687 22.3053L60.4021 32.8259H58.8746L56.9146 22.3053H58.4551L59.6023 29.5093C59.611 29.7151 59.6242 30.015 59.6416 30.4089C59.6373 30.203 59.6504 29.9031 59.681 29.5093L60.8347 22.3053H62.3687Z" fill="white"/>
<path d="M56.2067 32.8125H51.9521L51.9521 22.3053H56.1673L56.1673 23.6951H53.4861L53.4861 26.7633H55.7937L55.7937 28.1262H53.4861L53.4861 31.4227H56.2067L56.2067 32.8125Z" fill="white"/>
<path d="M50.7588 30.8319C50.7588 31.4496 50.5796 31.9352 50.2212 32.2888C49.8629 32.6379 49.38 32.8125 48.7725 32.8125H45.6455L45.6455 22.3053H48.7725C49.38 22.3053 49.8629 22.4843 50.2212 22.8424C50.5796 23.196 50.7588 23.6816 50.7588 24.2993L50.7588 30.8319ZM49.2183 30.57L49.2183 24.5343C49.2183 23.9479 48.9189 23.6548 48.3202 23.6548H47.1795L47.1795 31.463H48.2808C48.9058 31.463 49.2183 31.1653 49.2183 30.57Z" fill="white"/>
<path d="M18.6129 10.625L26.5403 15.3125V24.6875L18.6129 29.375L10.6854 24.6875V15.3125L18.6129 10.625Z" fill="#DFDFDF"/>
<path d="M9.76416 15L2.44106 19.3301L2.44106 10.6699L9.76416 15Z" fill="#504798"/>
<path d="M18.0024 30L10.6793 34.3301L10.6793 25.6699L18.0024 30Z" fill="#F0B60C"/>
<path d="M18.0024 10L10.6793 14.3301L10.6793 5.66987L18.0024 10Z" fill="#5DBBAD"/>
<path d="M34.4795 10L27.1564 14.3301L27.1564 5.66987L34.4795 10Z" fill="#F08900"/>
<path d="M2.74609 10L10.0692 14.3301L10.0692 5.66987L2.74609 10Z" fill="#039AD2"/>
<path d="M10.9844 5L18.3075 9.33012L18.3075 0.669872L10.9844 5Z" fill="#A2C10B"/>
<path d="M10.9844 35L18.3075 39.3301L18.3075 30.6699L10.9844 35Z" fill="#C7BC14"/>
<path d="M34.4795 20L27.1564 24.3301L27.1564 15.6699L34.4795 20Z" fill="#801986"/>
<path d="M2.74609 20L10.0692 24.3301L10.0692 15.6699L2.74609 20Z" fill="#801986"/>
<path d="M27.4614 25L34.7845 29.3301L34.7845 20.6699L27.4614 25Z" fill="#504798"/>
<path d="M19.2231 30L26.5462 34.3301L26.5462 25.6699L19.2231 30Z" fill="#5DBBAD"/>
<path d="M19.2231 10L26.5462 14.3301L26.5462 5.66987L19.2231 10Z" fill="#F0B60C"/>
<path d="M27.4614 15L34.7845 19.3301L34.7845 10.6699L27.4614 15Z" fill="#D60910"/>
<path d="M9.76416 25L2.44106 29.3301L2.44106 20.6699L9.76416 25Z" fill="#D60910"/>
<path d="M26.2412 5L18.9181 9.33012L18.9181 0.669872L26.2412 5Z" fill="#C7BC14"/>
<path d="M34.4795 30L27.1564 34.3301L27.1564 25.6699L34.4795 30Z" fill="#039AD2"/>
<path d="M2.74609 30L10.0692 34.3301L10.0692 25.6699L2.74609 30Z" fill="#F08900"/>
<path d="M26.2412 35L18.9181 39.3301L18.9181 30.6699L26.2412 35Z" fill="#A2C10B"/>
<path d="M10.6797 15.3125L18.613 20V29.375L10.6797 24.6875L10.6797 15.3125Z" fill="#A9B39B"/>
<path d="M26.5464 15.3125L18.613 20V29.375L26.5464 24.6875L26.5464 15.3125Z" fill="#C5C5C5"/>
</svg>
