<svg width="111" height="120" viewBox="0 0 111 120" fill="none" xmlns="http://www.w3.org/2000/svg">
<path d="M71.841 120H70.8704L70.4835 117.547H68.2961L67.9093 120H66.9668V119.972L68.9291 108.94H69.8927L71.841 120ZM70.3569 116.68L69.3933 110.702L68.4227 116.68H70.3569Z" fill="white"/>
<path d="M65.6446 120H64.7232V113.014C64.7232 112.916 64.756 112.627 64.8217 112.147L63.0211 118.964H62.8242L61.0236 112.147C61.0892 112.631 61.1221 112.92 61.1221 113.014V120H60.2007V108.968H61.108L62.8945 116.144C62.9039 116.182 62.9133 116.287 62.9226 116.461C62.9226 116.391 62.932 116.285 62.9508 116.144L64.7373 108.968H65.6446V120Z" fill="white"/>
<path d="M58.3649 120H57.3872V108.968H58.3649V120Z" fill="white"/>
<path d="M56.0016 120H55.031L54.6442 117.547H52.4568L52.0699 120H51.1274V119.972L53.0898 108.94H54.0534L56.0016 120ZM54.5176 116.68L53.554 110.702L52.5834 116.68H54.5176Z" fill="white"/>
<path d="M50.1003 120H49.0734L47.0267 114.093L47.1603 113.895H48.9046V109.835H46.3937V120H45.416V108.968H49.1015C49.3313 108.968 49.5189 109.041 49.6642 109.187C49.8096 109.332 49.8823 109.52 49.8823 109.751V113.938C49.8823 114.469 49.5259 114.734 48.8132 114.734C48.7428 114.734 48.6397 114.732 48.5037 114.727C48.3677 114.718 48.2693 114.713 48.2083 114.713C48.8413 116.471 49.472 118.233 50.1003 120Z" fill="white"/>
<path d="M43.6511 119.218C43.6511 119.448 43.576 119.636 43.426 119.781C43.2806 119.927 43.0931 120 42.8633 120H39.7827C39.5529 120 39.3653 119.927 39.22 119.781C39.0746 119.636 39.002 119.448 39.002 119.218V109.751C39.002 109.52 39.0746 109.332 39.22 109.187C39.3653 109.041 39.5529 108.968 39.7827 108.968H42.8633C43.0931 108.968 43.2806 109.041 43.426 109.187C43.576 109.332 43.6511 109.52 43.6511 109.751V119.218ZM42.6734 119.133V109.835H39.9796V119.133H42.6734Z" fill="white"/>
<path d="M37.5388 120H36.5119L34.4652 114.093L34.5988 113.895H36.3431V109.835H33.8321V120H32.8545V108.968H36.54C36.7698 108.968 36.9573 109.041 37.1027 109.187C37.2481 109.332 37.3207 109.52 37.3207 109.751V113.938C37.3207 114.469 36.9644 114.734 36.2516 114.734C36.1813 114.734 36.0782 114.732 35.9422 114.727C35.8062 114.718 35.7077 114.713 35.6468 114.713C36.2798 116.471 36.9104 118.233 37.5388 120Z" fill="white"/>
<path d="M47.3923 9.55392L46.4604 10.0932L41.6169 6.77479L44.2615 11.3656L43.4148 11.8555L37.9111 2.30154L38.7578 1.81163L41.2301 6.10326L40.7557 0.655565L41.6755 0.123353L41.7071 0.178296L42.1708 5.97404L47.3923 9.55392Z" fill="white"/>
<path d="M41.5443 12.0343C41.6592 12.2337 41.688 12.4341 41.6307 12.6355C41.5734 12.8368 41.4453 12.9951 41.2463 13.1102L38.7916 14.5306C38.5926 14.6458 38.3939 14.6767 38.1953 14.6233C37.9967 14.57 37.84 14.4436 37.7251 14.2442L33.0022 6.04555C32.8873 5.84613 32.8565 5.64691 32.9097 5.4479C32.9629 5.2489 33.089 5.09183 33.2879 4.97669L35.7427 3.55629C35.9416 3.44115 36.1424 3.40907 36.3451 3.46004C36.5477 3.51102 36.7064 3.63621 36.8213 3.83563L38.1014 6.05776L37.2486 6.5512L36.0108 4.40233L33.891 5.62889L38.5296 13.681L40.6493 12.4545L39.2954 10.1042L40.1481 9.61073L41.5443 12.0343Z" fill="white"/>
<path d="M36.9645 15.588L36.1239 16.0744L34.5651 14.1438L32.6707 15.2399L33.5595 17.5582L32.7433 18.0305L32.7293 18.0061L28.925 7.46882L29.7595 6.98596L36.9645 15.588ZM34.0229 13.4563L30.2062 8.76239L32.3478 14.4256L34.0229 13.4563Z" fill="white"/>
<path d="M27.0569 9.58348L25.5828 10.4364L30.654 19.2395L29.8073 19.7294L24.7362 10.9263L23.2499 11.7863L22.8174 11.0355L26.6243 8.8326L27.0569 9.58348Z" fill="white"/>
<path d="M26.9563 20.4757C27.0712 20.6751 27.102 20.8743 27.0488 21.0733C26.9997 21.27 26.8756 21.4259 26.6766 21.541L24.2767 22.9297C24.0777 23.0449 23.8769 23.0769 23.6743 23.026C23.4757 22.9726 23.319 22.8463 23.2041 22.6468L21.808 20.2233L22.6547 19.7333L24.0086 22.0837L26.0674 20.8924L24.7557 18.6153L20.2886 16.9512C19.9792 16.8372 19.7484 16.6479 19.596 16.3834L18.4812 14.4482C18.3663 14.2487 18.3355 14.0495 18.3887 13.8505C18.4459 13.6492 18.5741 13.4909 18.773 13.3758L21.1729 11.9871C21.3719 11.872 21.5687 11.8422 21.7632 11.8979C21.9617 11.9512 22.1184 12.0776 22.2333 12.277L23.5134 14.4992L22.6667 14.9891L21.4289 12.8402L19.37 14.0315L20.5306 16.0461L25.0099 17.7031C25.3064 17.8137 25.5308 18.0012 25.6832 18.2658L26.9563 20.4757Z" fill="white"/>
<path d="M22.4736 23.973L19.428 25.7353L13.9243 16.1813L14.771 15.6914L19.8421 24.4945L22.041 23.2221L22.4736 23.973Z" fill="white"/>
<path d="M18.2709 26.4049L15.2254 28.1672L9.72168 18.6133L10.5683 18.1234L15.6395 26.9264L17.8384 25.654L18.2709 26.4049Z" fill="white"/>
<path d="M13.3057 28.3743C13.4206 28.5737 13.4494 28.7741 13.3922 28.9754C13.3389 29.1744 13.2129 29.3315 13.0139 29.4466L10.419 30.9481C10.2201 31.0632 10.0213 31.0941 9.82274 31.0408C9.62418 30.9875 9.46746 30.8611 9.35258 30.6617L4.23926 21.7854L5.08593 21.2955L10.157 30.0985L12.4169 28.7909L7.34574 19.9879L8.19241 19.4979L13.3057 28.3743Z" fill="white"/>
<path d="M3.50249 23.213L1.27923 24.4995L3.36816 28.1257L5.41479 26.9415L5.85438 27.7045L3.80775 28.8888L6.35034 33.3025L5.50367 33.7925L0 24.2385L3.06994 22.4621L3.50249 23.213Z" fill="white"/>
<path d="M105.886 36.7814C105.772 36.9808 105.615 37.1072 105.416 37.1605C105.222 37.2162 105.025 37.1865 104.826 37.0713L102.426 35.6826C102.227 35.5675 102.099 35.4092 102.042 35.2079C101.989 35.0089 102.019 34.8097 102.134 34.6103L103.53 32.1867L104.377 32.6766L103.023 35.0269L105.082 36.2182L106.394 33.9411L105.598 29.2319C105.542 28.9063 105.59 28.6113 105.742 28.3468L106.857 26.4116C106.972 26.2122 107.129 26.0858 107.327 26.0325C107.53 25.9815 107.731 26.0136 107.93 26.1287L110.33 27.5174C110.529 27.6325 110.653 27.7884 110.702 27.9851C110.755 28.1841 110.724 28.3833 110.609 28.5827L109.329 30.8048L108.483 30.3149L109.72 28.1661L107.662 26.9747L106.501 28.9893L107.309 33.7057C107.362 34.0183 107.312 34.3069 107.159 34.5715L105.886 36.7814Z" fill="white"/>
<path d="M100.513 34.5759L99.6242 34.0613L100.799 27.9199L101.013 27.8159L102.523 28.69L104.549 25.1737L102.375 23.9154L97.3034 32.7185L96.4568 32.2286L101.96 22.6746L105.152 24.5215C105.351 24.6366 105.477 24.7937 105.53 24.9927C105.584 25.1917 105.553 25.3909 105.438 25.5904L103.349 29.2166C103.084 29.6765 102.643 29.7278 102.026 29.3707C101.965 29.3354 101.877 29.2817 101.761 29.2095C101.648 29.1332 101.565 29.0798 101.513 29.0492C101.184 30.8886 100.851 32.7308 100.513 34.5759Z" fill="white"/>
<path d="M95.1291 31.4602L91.9983 29.6486L97.502 20.0946L100.596 21.8851L100.164 22.636L97.9161 21.3354L95.8623 24.9006L97.9089 26.0849L97.4693 26.848L95.4227 25.6637L93.2775 29.3876L95.5617 30.7093L95.1291 31.4602Z" fill="white"/>
<path d="M93.2358 24.3984C93.121 24.5978 92.961 24.725 92.7561 24.7801C92.5575 24.8334 92.3587 24.8025 92.1598 24.6873L89.9121 23.3868L87.7283 27.1778L86.8816 26.6879L92.3853 17.134L95.4796 18.9245C95.6785 19.0396 95.8046 19.1967 95.8578 19.3957C95.9151 19.597 95.8863 19.7974 95.7714 19.9968L93.2358 24.3984ZM92.4314 23.8352L94.8825 19.5802L92.7994 18.3748L90.3482 22.6298L92.4314 23.8352Z" fill="white"/>
<path d="M85.743 25.1256C85.6281 25.325 85.4694 25.4502 85.2668 25.5012C85.0682 25.5545 84.8694 25.5236 84.6704 25.4085L82.0025 23.8647C81.8035 23.7496 81.6775 23.5925 81.6242 23.3935C81.571 23.1945 81.6019 22.9953 81.7168 22.7959L86.4397 14.5972C86.5546 14.3978 86.7113 14.2714 86.9099 14.2181C87.1084 14.1647 87.3072 14.1956 87.5062 14.3108L90.1741 15.8545C90.3731 15.9697 90.4992 16.1268 90.5524 16.3258C90.6097 16.5271 90.5808 16.7275 90.466 16.9269L85.743 25.1256ZM84.9385 24.5624L89.5771 16.5103L87.2442 15.1604L82.6056 23.2125L84.9385 24.5624Z" fill="white"/>
<path d="M80.1693 22.8038L77.1238 21.0415L82.6274 11.4876L83.4741 11.9775L78.403 20.7806L80.6019 22.0529L80.1693 22.8038Z" fill="white"/>
<path d="M75.7956 20.2732L72.6648 18.4616L78.1685 8.90762L81.2628 10.6981L80.8302 11.449L78.5826 10.1484L76.5288 13.7136L78.5754 14.8979L78.1358 15.6609L76.0892 14.4767L73.944 18.2006L76.2282 19.5223L75.7956 20.2732Z" fill="white"/>
<path d="M77.0173 8.24149L69.8489 16.8647L69.0509 16.403L72.918 5.86945L73.7585 6.35584L70.5584 14.6461C70.5584 14.6461 70.451 14.8607 70.2362 15.29C70.3223 15.1499 70.4561 14.9505 70.6376 14.6919L76.2011 7.76919L77.0173 8.24149Z" fill="white"/>
<path d="M66.4641 14.8735L63.3332 13.0619L68.8369 3.50797L71.9312 5.29845L71.4987 6.04933L69.251 4.74877L67.1973 8.31394L69.2439 9.4982L68.8043 10.2613L66.7577 9.07703L64.6125 12.8009L66.8966 14.1226L66.4641 14.8735Z" fill="white"/>
<path d="M62.8364 10.4707C62.5456 10.9754 62.14 11.2942 61.6195 11.4271C61.1053 11.5583 60.5965 11.4782 60.093 11.1868L57.9123 9.92502L63.416 0.371094L65.5966 1.63289C66.1042 1.92661 66.4287 2.33142 66.5701 2.84734C66.7138 3.35918 66.6403 3.86743 66.3496 4.37209L62.8364 10.4707ZM62.0389 9.89535L65.4607 3.95543C65.6412 3.64205 65.6871 3.33216 65.5983 3.02574C65.5159 2.7176 65.3184 2.47307 65.0057 2.29214L63.8301 1.61189L59.1916 9.66406L60.3184 10.3161C60.6474 10.5064 60.9673 10.5667 61.2781 10.497C61.5954 10.4256 61.849 10.225 62.0389 9.89535Z" fill="white"/>
<path d="M52.5534 39.8458L70.3744 50.1577V70.7815L52.5534 81.0934L34.7325 70.7815V50.1577L52.5534 39.8458Z" fill="#DFDFDF"/>
<path d="M32.6616 49.4702L16.1993 58.996L16.1993 39.9445L32.6616 49.4702Z" fill="#504798"/>
<path d="M51.1816 82.4683L34.7194 91.9941L34.7194 72.9426L51.1816 82.4683Z" fill="#F0B60C"/>
<path d="M51.1816 38.4709L34.7194 47.9966L34.7194 28.9451L51.1816 38.4709Z" fill="#5DBBAD"/>
<path d="M88.2217 38.4709L71.7594 47.9966L71.7594 28.9451L88.2217 38.4709Z" fill="#F08900"/>
<path d="M16.8853 38.4709L33.3475 47.9966L33.3475 28.9451L16.8853 38.4709Z" fill="#039AD2"/>
<path d="M35.4053 27.4715L51.8676 36.9972L51.8676 17.9458L35.4053 27.4715Z" fill="#A2C10B"/>
<path d="M35.4053 93.4677L51.8676 102.993L51.8676 83.942L35.4053 93.4677Z" fill="#C7BC14"/>
<path d="M88.2217 60.4696L71.7594 69.9953L71.7594 50.9438L88.2217 60.4696Z" fill="#801986"/>
<path d="M16.8853 60.4696L33.3475 69.9953L33.3475 50.9438L16.8853 60.4696Z" fill="#801986"/>
<path d="M72.4453 71.469L88.9076 80.9947L88.9076 61.9432L72.4453 71.469Z" fill="#504798"/>
<path d="M53.9253 82.4683L70.3876 91.9941L70.3876 72.9426L53.9253 82.4683Z" fill="#5DBBAD"/>
<path d="M53.9253 38.4709L70.3876 47.9966L70.3876 28.9451L53.9253 38.4709Z" fill="#F0B60C"/>
<path d="M72.4453 49.4702L88.9076 58.996L88.9076 39.9445L72.4453 49.4702Z" fill="#D60910"/>
<path d="M32.6616 71.469L16.1993 80.9947L16.1993 61.9432L32.6616 71.469Z" fill="#D60910"/>
<path d="M69.7017 27.4715L53.2394 36.9972L53.2394 17.9458L69.7017 27.4715Z" fill="#C7BC14"/>
<path d="M88.2217 82.4683L71.7594 91.9941L71.7594 72.9426L88.2217 82.4683Z" fill="#039AD2"/>
<path d="M16.8853 82.4683L33.3475 91.9941L33.3475 72.9426L16.8853 82.4683Z" fill="#F08900"/>
<path d="M69.7017 93.4677L53.2394 102.993L53.2394 83.942L69.7017 93.4677Z" fill="#A2C10B"/>
<path d="M34.7192 50.1577L52.5534 60.4696V81.0934L34.7192 70.7815L34.7192 50.1577Z" fill="#A9B39B"/>
<path d="M70.3877 50.1577L52.5535 60.4696V81.0934L70.3877 70.7815L70.3877 50.1577Z" fill="#C5C5C5"/>
</svg>
